<svg width="56" height="56" viewBox="0 0 56 56" fill="none" xmlns="http://www.w3.org/2000/svg">
<path d="M43.75 31.5L41.2755 33.9745L45.7922 38.5H31.5C29.6435 38.5 27.863 39.2375 26.5503 40.5503C25.2375 41.863 24.5 43.6435 24.5 45.5C24.5 47.3565 25.2375 49.137 26.5503 50.4497C27.863 51.7625 29.6435 52.5 31.5 52.5H35V49H31.5C30.5717 49 29.6815 48.6313 29.0251 47.9749C28.3687 47.3185 28 46.4283 28 45.5C28 44.5717 28.3687 43.6815 29.0251 43.0251C29.6815 42.3687 30.5717 42 31.5 42H45.7922L41.272 46.5272L43.75 49L52.5 40.25L43.75 31.5Z" fill="white"/>
<path d="M17.5 38.5H7L6.99475 12.0855L27.0042 25.9385C27.2968 26.141 27.6442 26.2494 28 26.2494C28.3558 26.2494 28.7032 26.141 28.9958 25.9385L49 12.0925V28H52.5V10.5C52.4991 9.57203 52.13 8.68233 51.4739 8.02615C50.8177 7.36997 49.928 7.00093 49 7H7C6.07265 7 5.18321 7.36803 4.52698 8.02327C3.87075 8.67851 3.50139 9.5674 3.5 10.4948V38.5C3.50139 39.4278 3.87058 40.3173 4.52666 40.9733C5.18274 41.6294 6.07217 41.9986 7 42H17.5V38.5ZM45.1482 10.5L28 22.372L10.8518 10.5H45.1482Z" fill="white"/>
</svg>
