<svg width="64" height="61" viewBox="0 0 64 61" fill="none" xmlns="http://www.w3.org/2000/svg">
<path d="M46.9452 51.2173L31.5779 42.9598L16.2106 51.2173L19.1451 33.7292L6.68652 21.3692L23.8814 18.792L31.5522 2.88184L39.2487 18.792L56.4436 21.3429L44.0108 33.7292L46.9452 51.2173Z" stroke="white" stroke-width="2" stroke-miterlimit="10"/>
<path d="M6.12012 12.3628L12.5207 14.8011" stroke="white" stroke-width="1.5" stroke-miterlimit="10" stroke-linecap="round"/>
<path d="M11.3018 5.9624L15.5688 10.5342" stroke="white" stroke-width="1.5" stroke-miterlimit="10" stroke-linecap="round"/>
<path d="M18.9219 2L20.141 8.09575" stroke="white" stroke-width="1.5" stroke-miterlimit="10" stroke-linecap="round"/>
<path d="M42.8476 2L41.6895 8.76628" stroke="white" stroke-width="1.5" stroke-miterlimit="10" stroke-linecap="round"/>
<path d="M50.1321 5.84033L46.4746 10.9303" stroke="white" stroke-width="1.5" stroke-miterlimit="10" stroke-linecap="round"/>
<path d="M55.4956 12.5454L49.7656 14.9228" stroke="white" stroke-width="1.5" stroke-miterlimit="10" stroke-linecap="round"/>
<path d="M62.4452 30.8633L55.6484 31.7472" stroke="white" stroke-width="1.5" stroke-miterlimit="10" stroke-linecap="round"/>
<path d="M60.9207 38.9706L55.0078 36.959" stroke="white" stroke-width="1.5" stroke-miterlimit="10" stroke-linecap="round"/>
<path d="M56.1058 46.072L52.1436 41.2563" stroke="white" stroke-width="1.5" stroke-miterlimit="10" stroke-linecap="round"/>
<path d="M7.1875 45.5541L11.3631 40.1289" stroke="white" stroke-width="1.5" stroke-miterlimit="10" stroke-linecap="round"/>
<path d="M2.55469 38.727L8.19326 35.9839" stroke="white" stroke-width="1.5" stroke-miterlimit="10" stroke-linecap="round"/>
<path d="M1 30.2842L7.18719 30.8938" stroke="white" stroke-width="1.5" stroke-miterlimit="10" stroke-linecap="round"/>
<path d="M39.5247 58.203L36.2939 52.1377" stroke="white" stroke-width="1.5" stroke-miterlimit="10" stroke-linecap="round"/>
<path d="M31.4175 59.6051L31.2041 53.3569" stroke="white" stroke-width="1.5" stroke-miterlimit="10" stroke-linecap="round"/>
<path d="M23.0664 57.5949L26.1448 52.2002" stroke="white" stroke-width="1.5" stroke-miterlimit="10" stroke-linecap="round"/>
</svg>
