<svg width="42" height="53" viewBox="0 0 42 53" fill="none" xmlns="http://www.w3.org/2000/svg">
<path d="M21 0.25C15.4666 0.249723 10.1568 2.43337 6.22451 6.32633C2.29223 10.2193 0.0553335 15.5069 0 21.04C0 35.425 18.5063 51.4375 19.2938 52.12C19.7692 52.5267 20.3743 52.7502 21 52.7502C21.6257 52.7502 22.2308 52.5267 22.7062 52.12C23.625 51.4375 42 35.425 42 21.04C41.9447 15.5069 39.7078 10.2193 35.7755 6.32633C31.8432 2.43337 26.5334 0.249723 21 0.25ZM21 46.5813C16.6163 42.4075 5.25 30.8313 5.25 21.04C5.25 16.8628 6.90937 12.8568 9.86307 9.90307C12.8168 6.94937 16.8228 5.29 21 5.29C25.1772 5.29 29.1832 6.94937 32.1369 9.90307C35.0906 12.8568 36.75 16.8628 36.75 21.04C36.75 30.7525 25.3837 42.4075 21 46.5813Z" fill="white"/>
<path d="M21 10.75C19.1829 10.75 17.4066 11.2888 15.8957 12.2984C14.3848 13.3079 13.2072 14.7428 12.5119 16.4216C11.8165 18.1004 11.6345 19.9477 11.989 21.7299C12.3435 23.5121 13.2186 25.1491 14.5035 26.434C15.7884 27.7189 17.4254 28.594 19.2076 28.9485C20.9898 29.303 22.8371 29.121 24.5159 28.4256C26.1947 27.7303 27.6296 26.5527 28.6391 25.0418C29.6487 23.5309 30.1875 21.7546 30.1875 19.9375C30.1875 17.5008 29.2195 15.1639 27.4965 13.441C25.7736 11.718 23.4367 10.75 21 10.75V10.75ZM21 23.875C20.2212 23.875 19.46 23.6441 18.8124 23.2114C18.1649 22.7788 17.6602 22.1638 17.3622 21.4443C17.0642 20.7248 16.9862 19.9331 17.1382 19.1693C17.2901 18.4055 17.6651 17.7039 18.2158 17.1533C18.7664 16.6026 19.468 16.2276 20.2318 16.0757C20.9956 15.9237 21.7873 16.0017 22.5068 16.2997C23.2263 16.5977 23.8413 17.1024 24.2739 17.7499C24.7066 18.3975 24.9375 19.1587 24.9375 19.9375C24.9375 20.9818 24.5227 21.9833 23.7842 22.7217C23.0458 23.4602 22.0443 23.875 21 23.875Z" fill="white"/>
</svg>
