<svg width="38" height="40" viewBox="0 0 38 40" fill="none" xmlns="http://www.w3.org/2000/svg">
<path d="M7 26C8.82 26 10.466 25.284 11.714 24.14L24.234 31.294C24.0857 31.8508 24.0071 32.4238 24 33C24 36.86 27.14 40 31 40C34.86 40 38 36.86 38 33C38 29.14 34.86 26 31 26C29.18 26 27.534 26.716 26.286 27.86L13.766 20.706C13.892 20.212 13.972 19.702 13.982 19.17L26.284 12.14C27.534 13.284 29.18 14 31 14C34.86 14 38 10.86 38 7C38 3.14 34.86 0 31 0C27.14 0 24 3.14 24 7C24 7.592 24.096 8.156 24.234 8.706L12.866 15.204C12.2335 14.2227 11.3653 13.4153 10.3406 12.8557C9.316 12.296 8.16752 12.0018 7 12C3.14 12 0 15.14 0 19C0 22.86 3.14 26 7 26ZM31 30C32.654 30 34 31.346 34 33C34 34.654 32.654 36 31 36C29.346 36 28 34.654 28 33C28 31.346 29.346 30 31 30ZM31 4C32.654 4 34 5.346 34 7C34 8.654 32.654 10 31 10C29.346 10 28 8.654 28 7C28 5.346 29.346 4 31 4ZM7 16C8.654 16 10 17.346 10 19C10 20.654 8.654 22 7 22C5.346 22 4 20.654 4 19C4 17.346 5.346 16 7 16Z" fill="black"/>
</svg>
