<svg width="37" height="37" viewBox="0 0 37 37" fill="none" xmlns="http://www.w3.org/2000/svg">
<g clip-path="url(#clip0)">
<path d="M0 17.8981V17.8458C0.464435 11.7751 2.6318 7.22205 6.39888 4.34369C10.1144 1.413 14.1395 -1.53781e-05 18.5258 -1.53781e-05C23.1185 -0.0523492 27.4017 1.51767 31.2204 4.65769C35.0907 7.74539 37 12.3508 37 18.3168V18.6832C37 24.7015 35.0907 29.2022 31.2204 32.2899C27.3501 35.43 23.0669 37 18.4742 37H18.2678C13.7782 36.9477 9.64993 35.3776 5.83124 32.2376C2.01255 29.1499 0.0516039 24.3875 0 17.8981ZM17.3905 9.68174V1.413H16.152C15.894 1.727 15.6876 2.09334 15.4812 2.40734C15.2748 2.72134 15.0683 3.03535 14.8619 3.40168C14.6555 3.71568 14.3975 4.13436 14.2427 4.44836C14.0363 4.76236 13.8815 5.07636 13.7266 5.4427C13.417 5.96604 13.159 6.48938 12.9526 6.96038C12.6946 7.43139 12.4881 7.90239 12.3333 8.32106C12.643 8.5304 13.0042 8.79206 13.417 8.94907C13.8815 9.10607 14.3459 9.26307 14.8103 9.36774C15.3264 9.4724 15.7908 9.52474 16.2036 9.57707C16.6681 9.62941 17.0809 9.68174 17.3905 9.68174ZM19.5579 1.413V9.62941C19.8159 9.62941 20.1255 9.68174 20.4351 9.62941C20.7448 9.62941 21.106 9.57707 21.4156 9.52474C21.9833 9.42007 22.6541 9.26307 23.1702 9.10607C23.7378 8.89673 24.2538 8.63506 24.6151 8.32106C23.9958 6.80338 23.325 5.5997 22.6541 4.44836C21.9833 3.29701 21.2092 2.30267 20.3835 1.46533V1.413H19.5579ZM13.9847 1.884V1.83167C13.6234 1.98867 13.2622 2.25034 12.8494 2.40734C12.4881 2.56434 12.0237 2.77368 11.6625 2.98301C10.94 3.34935 10.2176 3.76802 9.49512 4.23902C8.82427 4.71003 8.15342 5.23337 7.58577 5.7567C7.79219 5.96604 8.05021 6.17537 8.25663 6.33238C8.46304 6.48938 8.72106 6.69871 8.97908 6.90805C9.1855 7.01271 9.44351 7.16972 9.70153 7.37905C9.95955 7.53605 10.2692 7.74539 10.5788 7.95472C10.9916 7.01271 11.4045 6.01837 11.9205 5.1287C12.4365 4.18669 13.0042 3.29701 13.5718 2.51201C13.6234 2.40734 13.675 2.30267 13.7782 2.198C13.8298 2.14567 13.8815 1.98867 13.9847 1.884ZM29.7755 5.7567V5.70437C28.4854 4.71003 27.3501 3.87269 26.2148 3.34935C25.0795 2.82601 23.9442 2.30267 22.9121 1.884C23.7378 2.72134 24.4603 3.76802 24.9247 4.76236C25.4407 5.80904 25.9568 6.90805 26.3696 7.95472C26.576 7.85006 26.834 7.74539 27.1437 7.53605C27.4017 7.37905 27.7629 7.22205 28.0725 7.06505C28.3821 6.85571 28.6402 6.64638 28.9498 6.43704C29.2594 6.17537 29.569 5.96604 29.7755 5.7567ZM28.8982 17.4271H34.8326C34.8326 15.4908 34.4198 13.6591 33.6457 11.7751C32.9233 9.94341 31.8912 8.42573 30.6011 7.11738V7.06505C30.3431 7.48372 29.9819 7.85006 29.6206 8.11172C29.2078 8.37339 28.8466 8.58273 28.4338 8.79206C28.1757 8.94907 27.9177 9.1584 27.6597 9.26307C27.4017 9.42007 27.0404 9.52474 26.7824 9.68174C26.9888 10.1004 27.1953 10.5714 27.4017 10.9901C27.5565 11.4611 27.8145 11.9844 27.9177 12.4554C28.2273 13.2928 28.4338 14.1824 28.6402 15.0721C28.795 15.8571 28.8982 16.6945 28.8982 17.4271ZM10.2176 9.68174V9.62941C9.80474 9.42007 9.34031 9.26307 8.97908 9.05373C8.61785 8.79206 8.25663 8.5304 7.947 8.32106C7.63738 8.16406 7.32775 7.95472 7.06974 7.74539C6.81172 7.53605 6.6053 7.32672 6.39888 7.11738C5.05718 8.42573 4.07671 9.89107 3.45746 11.6181C2.78661 13.3451 2.32218 15.2815 2.11576 17.3748H8.46304C8.46304 15.9095 8.66946 14.4964 9.03068 13.0834C9.34031 11.6181 9.80474 10.5191 10.2176 9.68174ZM17.3905 17.3748V11.3564C16.9777 11.4088 16.4616 11.4088 15.9972 11.3564C15.4812 11.3041 14.9651 11.1471 14.5007 10.9901C14.0879 10.8854 13.5718 10.7807 13.159 10.6237C12.6946 10.5191 12.2301 10.3097 11.8689 10.1004C11.5593 10.6237 11.3013 11.2518 11.0948 11.9321C10.8368 12.5601 10.682 13.2404 10.5272 13.8684C10.424 14.4964 10.3724 15.1768 10.3208 15.7525C10.2692 16.3281 10.2176 16.9038 10.2176 17.3748H17.3905ZM19.5579 11.4611V17.3748H27.1953C27.1953 17.0608 27.1953 16.6945 27.1437 16.2758C27.0404 15.9095 26.9888 15.4385 26.9372 15.0198C26.7824 14.3918 26.6276 13.7114 26.4212 13.0834C26.2148 12.5078 26.0084 11.9321 25.7503 11.4611C25.6471 11.1994 25.5439 10.8854 25.4407 10.6761C25.2859 10.4144 25.1311 10.2574 25.0279 10.1004C24.4603 10.5191 23.6862 10.7807 22.7573 10.9901C21.8801 11.1994 20.848 11.4088 19.9191 11.4611H19.5579ZM8.46304 19.1018H2.11576C2.11576 19.9915 2.27057 20.9858 2.52859 22.1895C2.78661 23.4455 3.30265 24.5969 3.87029 25.8529C4.12831 26.4809 4.43794 27.1089 4.74756 27.7369C5.10879 28.3126 5.52162 28.9406 5.93445 29.5162C6.24407 29.3069 6.5537 29.1499 6.81172 28.9929C7.12134 28.8359 7.48257 28.6266 7.79219 28.4696C8.15342 28.3126 8.51464 28.1556 8.92748 27.9462C9.2887 27.7892 9.75314 27.5799 10.2176 27.3706C9.80474 26.0622 9.34031 24.8062 9.03068 23.3932C8.66946 22.0325 8.46304 20.6718 8.46304 19.1542V19.1018ZM17.3905 25.2249V19.1018H10.2176C10.2176 19.5205 10.2692 20.1485 10.3724 20.7765C10.424 21.4045 10.5788 22.0849 10.682 22.7652C10.8884 23.4979 11.0432 24.2305 11.2497 24.8585C11.4561 25.4865 11.6625 26.0099 11.8689 26.4809C12.7978 26.1146 13.7266 25.8529 14.3459 25.6959C15.0167 25.4865 15.636 25.3295 16.2552 25.2772H16.8229C17.0293 25.2249 17.2357 25.2249 17.3905 25.2249ZM19.5579 19.1018V25.1725C19.9191 25.2249 20.3319 25.2772 20.7448 25.3295C21.2092 25.3819 21.7768 25.4865 22.2413 25.5912L23.0153 25.7482C23.2734 25.8529 23.583 25.9052 23.841 25.9576C24.1506 26.0622 24.4603 26.1146 24.7699 26.2192C25.0279 26.3239 25.2859 26.3762 25.4923 26.4809C26.1632 24.7539 26.576 23.3409 26.834 22.1372C27.0921 20.9858 27.1953 19.9915 27.1953 19.1542V19.1018H19.5579ZM34.8326 19.1542V19.1018H28.8982V19.4158C28.8466 20.4102 28.6918 21.5615 28.4854 22.7652C28.2789 23.9165 27.8145 25.2772 27.1953 26.9519C28.0209 27.3706 28.795 27.7892 29.4142 28.2079C30.0335 28.6266 30.6011 29.0976 31.0139 29.5162C31.8912 28.6266 32.6653 27.4229 33.3361 25.8529C34.007 24.3352 34.4714 22.7652 34.7294 21.0905C34.781 20.7765 34.781 20.4625 34.8326 20.1485V19.1542ZM17.3905 35.0636V26.8996C16.1004 27.1089 15.0167 27.3706 14.1911 27.5799C13.3654 27.7892 12.7462 27.9986 12.3333 28.2079C12.643 28.9929 12.9526 29.6733 13.2622 30.3013C13.5718 30.8769 13.9331 31.5049 14.2427 32.0283C14.3459 32.2376 14.5523 32.4469 14.7071 32.7086C14.8619 32.9179 14.9651 33.1796 15.1199 33.389C15.2748 33.6506 15.4296 33.9646 15.5844 34.2786C15.7908 34.5403 15.9456 34.8543 16.152 35.0636H17.3905ZM19.5579 35.0636H20.7448C21.2092 34.6973 21.6736 34.174 22.0349 33.5983C22.4477 33.0226 22.9121 32.3423 23.2218 31.7666C23.583 31.0863 23.9442 30.4583 24.2538 29.8303C24.5635 29.2022 24.8215 28.6266 25.0279 28.2079C24.4603 27.9986 23.6862 27.7892 22.9121 27.5799C22.1381 27.3706 21.0544 27.1612 19.5579 26.9519V35.0636ZM29.7755 30.7723V30.7199C29.6722 30.5629 29.4658 30.3536 29.311 30.1966C29.1562 30.0396 28.8982 29.8303 28.6402 29.6733C28.4338 29.5162 28.1757 29.3592 27.8661 29.2022C27.5565 29.0452 27.1437 28.8359 26.7824 28.6266C26.576 29.0452 26.2148 29.7779 25.6987 30.7723C25.2343 31.7666 24.4086 32.9703 23.3766 34.2786C24.6667 34.0693 25.802 33.5983 26.834 32.9703C27.9693 32.3946 28.9498 31.6096 29.7755 30.7723ZM10.5788 29.0976V29.0452C10.2176 29.2546 9.64993 29.5162 9.08229 29.7779C8.46304 30.0396 7.79219 30.3536 7.17294 30.7723C7.53417 31.0863 7.8954 31.4003 8.20502 31.6096C8.51464 31.8713 8.87587 32.0806 9.1855 32.2899C9.75314 32.6563 10.424 33.0226 11.0948 33.3366C11.7657 33.6506 12.5914 33.9646 13.6234 34.2786C13.2622 33.86 13.0042 33.3366 12.7462 32.9179C12.4881 32.4993 12.1785 32.0806 11.9205 31.6619C11.6625 31.2433 11.4561 30.7723 11.2497 30.3536C10.9916 29.9349 10.7852 29.5162 10.5788 29.0976Z" fill="black"/>
</g>
<defs>
<clipPath id="clip0">
<rect width="37" height="37" fill="white"/>
</clipPath>
</defs>
</svg>
