<svg width="50" height="36" viewBox="0 0 50 36" fill="none" xmlns="http://www.w3.org/2000/svg">
<path d="M48.4773 6.19297C48.1984 5.15412 47.6515 4.20674 46.8914 3.44566C46.1313 2.68459 45.1846 2.1365 44.1461 1.85625C40.3234 0.828125 25 0.828125 25 0.828125C25 0.828125 9.67656 0.828125 5.85391 1.85078C4.81496 2.13012 3.86779 2.6779 3.10753 3.43912C2.34727 4.20034 1.80068 5.1482 1.52266 6.1875C0.5 10.0156 0.5 18 0.5 18C0.5 18 0.5 25.9844 1.52266 29.807C2.08594 31.918 3.74844 33.5805 5.85391 34.1437C9.67656 35.1719 25 35.1719 25 35.1719C25 35.1719 40.3234 35.1719 44.1461 34.1437C46.257 33.5805 47.9141 31.918 48.4773 29.807C49.5 25.9844 49.5 18 49.5 18C49.5 18 49.5 10.0156 48.4773 6.19297ZM20.1328 25.3281V10.6719L32.8203 17.9453L20.1328 25.3281Z" fill="black"/>
</svg>
